<?xml version="1.0" encoding="utf-8"?>
<!-- Generator: Adobe Illustrator 16.0.0, SVG Export Plug-In . SVG Version: 6.00 Build 0)  -->
<!DOCTYPE svg PUBLIC "-//W3C//DTD SVG 1.1//EN" "http://www.w3.org/Graphics/SVG/1.1/DTD/svg11.dtd">
<svg version="1.1" id="Layer_1" xmlns="http://www.w3.org/2000/svg" xmlns:xlink="http://www.w3.org/1999/xlink" x="0px" y="0px"
	 viewBox="0 0 2054.049 915.102" enable-background="new 0 0 2054.049 915.102"
	 xml:space="preserve">
<g>
	<g>
		<path fill="#D95027" stroke="#D85027" stroke-width="5" stroke-miterlimit="10" d="M822.501,105.172
			c0,4.166,3.383,7.549,7.551,7.549c4.167,0,7.549-3.383,7.549-7.549c0-4.167-3.382-7.55-7.549-7.55
			C825.884,97.623,822.501,101.005,822.501,105.172z"/>
		<path fill="#D95027" stroke="#D85027" stroke-width="5" stroke-miterlimit="10" d="M852.698,195.765
			c0,9.67-0.969,19.322-2.88,28.688c-0.835,4.084,1.804,8.071,5.886,8.906c0.51,0.106,1.02,0.157,1.52,0.157
			c3.512,0,6.658-2.469,7.389-6.042c2.115-10.36,3.186-21.027,3.186-31.708c0-23.771-5.154-46.648-15.324-67.991
			c-1.795-3.763-6.299-5.362-10.063-3.569c-3.767,1.792-5.36,6.3-3.567,10.065C848.036,153.568,852.698,174.258,852.698,195.765z"/>
		<path fill="#D95027" stroke="#D85027" stroke-width="5" stroke-miterlimit="10" d="M742.478,263.71h-7.55v-98.143
			c0-4.17-3.379-7.549-7.548-7.549h-60.396c-4.17,0-7.55,3.379-7.55,7.549v30.198c0,4.17,3.379,7.549,7.55,7.549h7.55v60.396h-7.55
			c-4.17,0-7.55,3.379-7.55,7.549v30.198c0,4.169,3.379,7.549,7.55,7.549h75.494c4.17,0,7.55-3.379,7.55-7.549v-30.198
			C750.028,267.089,746.648,263.71,742.478,263.71z M734.928,293.907h-60.394v-15.099h7.548c4.17,0,7.55-3.38,7.55-7.55v-75.494
			c0-4.169-3.38-7.549-7.55-7.549h-7.548v-15.099h45.296v98.142c0,4.169,3.382,7.55,7.55,7.55h7.548V293.907z"/>
		<path fill="#D95027" stroke="#D85027" stroke-width="5" stroke-miterlimit="10" d="M704.731,142.918
			c16.649,0,30.197-13.547,30.197-30.197c0-16.65-13.547-30.197-30.197-30.197c-16.65,0-30.197,13.547-30.197,30.197
			C674.534,129.371,688.081,142.918,704.731,142.918z M704.731,97.623c8.324,0,15.099,6.773,15.099,15.099
			s-6.774,15.099-15.099,15.099c-8.325,0-15.099-6.773-15.099-15.099S696.407,97.623,704.731,97.623z"/>
		<path fill="#D95027" stroke="#D85027" stroke-width="5" stroke-miterlimit="10" d="M704.731,2.5
			c-104.166,0-193.265,88.932-193.265,193.265c0,35.638,10.211,73.54,27.432,102.207l-27.047,81.123
			c-0.901,2.71-0.196,5.703,1.826,7.724c2.032,2.032,5.028,2.725,7.726,1.823l81.126-27.042
			c28.662,17.223,66.562,27.432,102.202,27.432c104.191,0,193.264-88.945,193.264-193.265C897.995,91.575,809.055,2.5,704.731,2.5z
			 M704.731,373.931c-34.188,0-70.524-10.089-97.204-26.987c-1.891-1.197-4.247-1.513-6.43-0.785l-70.145,23.384l23.383-70.146
			c0.72-2.152,0.43-4.511-0.784-6.427c-16.897-26.678-26.987-63.018-26.987-97.206c0-96.577,81.59-178.166,178.167-178.166
			c96.576,0,178.166,81.589,178.166,178.166S801.307,373.931,704.731,373.931z"/>
	</g>
</g>
<g>
	<g>
		<path fill="#0359A7" d="M537.23,435.233L138.8,546.772l351.66-217.996c2.733-1.694,4.68-4.409,5.417-7.538
			c0.737-3.133,0.199-6.426-1.497-9.159L455,248.551c-15.73-25.372-46.842-37.462-75.653-29.396
			c-6.072,1.7-11.879,4.256-17.27,7.595L31.903,431.425c-15.271,9.464-25.95,24.369-30.082,41.961
			c-4.127,17.591-1.185,35.692,8.279,50.959l38.474,62.064l77.893,278.238c10.033,35.838,47.348,56.831,83.182,46.8l140.331-39.286
			c6.45-1.806,10.214-8.497,8.409-14.948c-1.806-6.45-8.498-10.214-14.947-8.409L203.114,888.09
			c-22.96,6.427-46.864-7.021-53.292-29.98l-44.49-158.924l59.828-16.749l0.027-0.007l0.023-0.006l91.455-25.603l0.027-0.007
			l0.027-0.008l91.456-25.603l0.027-0.008l0.027-0.007l91.456-25.603l0.027-0.008l0.023-0.006l122.949-34.419l44.49,158.924
			c6.428,22.96-7.019,46.864-29.979,53.292l-140.331,39.285c-6.444,1.805-10.215,8.498-8.409,14.948
			c1.805,6.45,8.501,10.214,14.947,8.409l140.332-39.285c35.837-10.032,56.829-47.349,46.796-83.187l-78.355-279.895
			C550.372,437.191,543.681,433.427,537.23,435.233z M361.901,602.173l25.561-99.826l64.537-18.067l-25.558,99.825L361.901,602.173z
			 M270.391,627.791l25.563-99.826l64.536-18.066l-25.558,99.825L270.391,627.791z M178.886,653.407l25.557-99.825l64.54-18.068
			l-25.562,99.826L178.886,653.407z M179.981,490.069l-105.43-56.544l57.208-35.461c0.616,0.517,1.296,0.976,2.037,1.373
			l105.43,56.544l-57.208,35.461C181.402,490.926,180.717,490.463,179.981,490.069z M295.33,299.302l105.43,56.544l-57.207,35.461
			c-0.616-0.517-1.297-0.98-2.037-1.373l-105.43-56.544l57.208-35.461C293.909,298.445,294.588,298.904,295.33,299.302z
			 M214.561,349.373l105.429,56.539l-57.206,35.465c-0.617-0.515-1.298-0.979-2.037-1.372l-105.43-56.544L212.523,348
			C213.145,348.51,213.825,348.974,214.561,349.373z M374.857,247.365c3.445-2.135,7.155-3.769,11.028-4.854
			c18.48-5.172,38.42,2.566,48.5,18.821l32.99,53.215l-43.054,26.688c-0.623-0.515-1.301-0.974-2.042-1.371l-105.424-56.541
			L374.857,247.365z M25.436,478.926c2.646-11.283,9.482-20.832,19.249-26.886l6.304-3.91c0.622,0.515,1.303,0.979,2.037,1.373
			l105.431,56.544l-94.749,58.737l-32.99-53.216C24.663,501.806,22.79,490.214,25.436,478.926z M74.736,589.894l102.737-28.761
			l-25.558,99.825l-53.122,14.871L74.736,589.894z M453.411,576.555l25.557-99.825l53.123-14.871l24.058,85.936L453.411,576.555z"/>
		<path fill="#0359A7" d="M442.501,711.654c-1.169-4.174-4.474-7.406-8.671-8.479l-119.182-30.512
			c-4.197-1.074-8.649,0.173-11.678,3.27c-3.029,3.096-4.177,7.574-3.008,11.748l33.165,118.47c1.167,4.169,4.473,7.401,8.669,8.474
			c2.099,0.539,4.262,0.499,6.279-0.065c2.016-0.565,3.885-1.654,5.399-3.204l86.018-87.953
			C442.522,720.306,443.668,715.828,442.501,711.654z M350.821,779.385l-21.841-78.016l78.485,20.093L350.821,779.385z"/>
		<path fill="#0359A7" d="M390.152,835.729c-6.431,1.801-10.209,8.515-8.409,14.947c1.801,6.433,8.515,10.21,14.949,8.409
			c6.436-1.802,10.209-8.515,8.409-14.947S396.59,833.927,390.152,835.729z"/>
	</g>
</g>
<g>
	<path fill="#D95027" d="M729.241,594.292V789.36c-6.059,1.27-14.269,1.913-24.622,1.913c-10.362,0-18.572-0.643-24.623-1.913
		V614.373c0-8.919-1.599-15.299-4.781-19.124c-3.19-3.825-8.606-5.737-16.255-5.737h-5.259c-1.599-7.007-2.391-12.909-2.391-17.69
		s0.792-10.832,2.391-18.168c10.518-1.27,20.559-1.913,30.121-1.913h6.693c12.11,0,21.59,3.825,28.447,11.475
		C725.813,570.866,729.241,581.227,729.241,594.292z M669.478,508.712c-2.869-5.737-4.303-12.745-4.303-21.037
		c0-13.066,2.391-20.798,7.171-23.188c4.781-2.39,12.745-3.743,23.905-4.063c12.745,0.321,20.873,1.912,24.383,4.781
		c3.504,2.869,5.416,10.361,5.737,22.471c-0.321,11.475-2.233,18.811-5.737,21.993c-3.511,3.19-11.639,4.945-24.383,5.259
		C683.821,514.927,674.894,512.858,669.478,508.712z"/>
	<path fill="#D95027" d="M947.733,627.282v111.398c0,18.811,2.705,33.311,8.129,43.508c-8.293,7.015-18.012,10.518-29.166,10.518
		c-10.838,0-18.25-2.629-22.23-7.889c-3.99-5.259-5.977-13.148-5.977-23.666V639.713c0-16.569-2.152-28.365-6.455-35.38
		c-4.303-7.007-11.713-10.519-22.232-10.519c-10.518,0-21.275,2.63-32.271,7.889c-10.996,5.259-20.641,12.513-28.926,21.753V789.36
		c-5.424,1.27-13.551,1.913-24.383,1.913c-5.102,0-9.727-0.165-13.865-0.479c-4.146-0.321-7.814-0.799-10.996-1.434V554.132
		l2.868-2.869h18.646c17.213,0,26.297,9.883,27.252,29.643c23.264-21.351,48.604-32.033,76.02-32.033
		c21.352,0,37.293,7.097,47.811,21.276C942.474,584.334,947.733,603.377,947.733,627.282z"/>
	<path fill="#0359A7" d="M1033.311,505.843l0.478,56.417v42.073c4.781-0.314,11.475-0.478,20.081-0.478h96.099
		c1.592,5.423,2.391,12.513,2.391,21.275c0,8.771-0.799,15.86-2.391,21.276h-116.18V789.36c-7.336,1.27-15.941,1.913-25.817,1.913
		c-9.884,0-18.168-0.643-24.861-1.913V465.682l2.868-2.869h189.33c1.912,5.737,2.869,12.431,2.869,20.081
		c0,15.621-9.563,23.427-28.687,23.427h-70.282C1057.529,506.321,1042.229,506.165,1033.311,505.843z"/>
	<path fill="#0359A7" d="M1238.89,594.292V789.36c-6.059,1.27-14.269,1.913-24.622,1.913c-10.361,0-18.571-0.643-24.623-1.913
		V614.373c0-8.919-1.599-15.299-4.78-19.124c-3.19-3.825-8.606-5.737-16.256-5.737h-5.26c-1.599-7.007-2.39-12.909-2.39-17.69
		s0.791-10.832,2.39-18.168c10.519-1.27,20.559-1.913,30.121-1.913h6.693c12.109,0,21.59,3.825,28.447,11.475
		C1235.461,570.866,1238.89,581.227,1238.89,594.292z M1179.127,508.712c-2.869-5.737-4.304-12.745-4.304-21.037
		c0-13.066,2.391-20.798,7.172-23.188c4.781-2.39,12.744-3.743,23.905-4.063c12.744,0.321,20.872,1.912,24.384,4.781
		c3.503,2.869,5.416,10.361,5.737,22.471c-0.321,11.475-2.234,18.811-5.737,21.993c-3.512,3.19-11.64,4.945-24.384,5.259
		C1193.47,514.927,1184.543,512.858,1179.127,508.712z"/>
	<path fill="#0359A7" d="M1335.465,752.067h17.689c2.869,8.068,4.304,15.173,4.304,21.298c0,6.133-0.479,10.974-1.435,14.515
		c-12.752,2.256-26.296,3.392-40.639,3.392c-31.556,0-47.333-16.413-47.333-49.245V440.821l3.347-2.869h18.646
		c9.876,0,16.809,2.473,20.798,7.403c3.981,4.93,5.976,12.968,5.976,24.107v261.12
		C1316.818,744.911,1323.034,752.067,1335.465,752.067z"/>
	<path fill="#0359A7" d="M1495.627,639.713c0-16.256-2.316-27.969-6.933-35.141c-4.625-7.171-11.878-10.757-21.754-10.757
		c-17.212,0-34.424,9.727-51.636,29.165V789.36c-5.424,1.27-13.552,1.913-24.384,1.913c-5.102,0-9.726-0.165-13.864-0.479
		c-4.146-0.321-7.814-0.799-10.997-1.434V554.61l2.869-3.347h18.646c17.212,0,26.296,10.04,27.252,30.121
		c22.628-21.671,46.056-32.511,70.282-32.511c24.54,0,41.909,11.796,52.113,35.38c26.132-23.584,51.471-35.38,76.019-35.38
		c20.081,0,35.38,7.015,45.898,21.037c10.519,14.03,15.777,32.033,15.777,54.026v114.746c0,19.767,2.548,34.267,7.649,43.508
		c-8.927,7.015-19.288,10.518-31.076,10.518c-17.533,0-26.296-10.518-26.296-31.555V639.235c0-16.256-2.316-27.887-6.933-34.902
		c-4.624-7.007-11.878-10.519-21.754-10.519c-17.212,0-34.424,9.727-51.636,29.165V789.36c-3.189,0.635-6.933,1.113-11.235,1.434
		c-4.303,0.314-8.845,0.479-13.626,0.479c-4.467,0-8.927-0.165-13.387-0.479c-4.468-0.321-8.128-0.799-10.996-1.434V639.713z"/>
	<path fill="#0359A7" d="M1878.588,687.045h-140.563c0.956,21.993,5.655,38.891,14.104,50.679c8.441,11.795,22.71,17.69,42.79,17.69
		c9.563,0,19.842-1.435,30.838-4.303s22.389-7.485,34.185-13.865c7.964,7.336,13.223,17.854,15.777,31.555
		c-25.504,17.854-55.46,26.774-89.884,26.774c-18.168,0-33.468-3.19-45.898-9.562s-22.553-15.135-30.359-26.296
		c-7.814-11.153-13.469-24.458-16.973-39.922c-3.511-15.456-5.259-32.108-5.259-49.962c0-17.525,2.226-33.863,6.693-49.006
		c4.46-15.135,10.832-28.126,19.124-38.966c8.284-10.832,18.563-19.363,30.838-25.579c12.267-6.215,26.057-9.323,41.355-9.323
		c15.3,0,28.926,2.555,40.879,7.649c11.952,5.103,22.067,12.192,30.359,21.276c8.284,9.084,14.582,19.923,18.885,32.511
		c4.304,12.595,6.455,26.221,6.455,40.878c0,6.38-0.239,12.67-0.718,18.885C1880.739,674.375,1879.857,680.673,1878.588,687.045z
		 M1786.791,583.774c-30.285,0-46.54,22.471-48.767,67.413h96.577v-6.215c0-18.168-3.907-32.907-11.713-44.225
		C1815.074,589.437,1803.047,583.774,1786.791,583.774z"/>
	<path fill="#0359A7" d="M1876.675,771.67c0.313-5.416,2.062-11.549,5.236-18.407c3.176-6.85,6.828-12.191,10.96-16.016
		c25.398,14.029,46.032,21.037,61.914,21.037c16.196,0,28.179-2.705,35.963-8.128c7.776-5.416,11.669-12.588,11.669-21.515
		c0-14.022-10.003-24.862-30.002-32.511l-26.661-10.041c-40.318-15.299-60.474-38.084-60.474-68.369
		c0-21.993,7.89-39.279,23.667-51.875c15.777-12.587,36.41-18.885,61.914-18.885c25.818,0,51.472,5.737,76.976,17.211
		c0,6.38-1.36,13.073-4.064,20.081c-2.712,7.015-6.297,12.431-10.757,16.256c-22.636-10.519-43.829-15.778-63.588-15.778
		c-10.519,0-18.886,2.555-25.101,7.65c-6.216,5.102-9.323,11.475-9.323,19.124c0,7.65,2.309,13.551,6.933,17.69
		c4.616,4.146,12.191,8.292,22.71,12.431l28.687,10.997c40.475,15.621,60.719,39.526,60.719,71.716
		c0,21.993-8.449,39.369-25.339,52.114c-16.898,12.752-39.848,19.124-68.848,19.124
		C1930.857,795.575,1903.128,787.612,1876.675,771.67z"/>
</g>
</svg>
